<svg width="15" height="24" viewBox="0 0 15 24" fill="none" xmlns="http://www.w3.org/2000/svg">
  <path d="M5.25 0C5.05109 0 4.86032 0.0790176 4.71967 0.21967C4.57902 0.360322 4.5 0.551088 4.5 0.75V4.5H3C2.20435 4.5 1.44129 4.81607 0.87868 5.37868C0.31607 5.94129 6.53707e-08 6.70435 6.53707e-08 7.5V19.5C-0.000111766 20.0358 0.143262 20.5618 0.415223 21.0234C0.687184 21.4851 1.07781 21.8654 1.5465 22.125C1.49017 22.3467 1.48513 22.5783 1.53176 22.8022C1.57839 23.0261 1.67546 23.2365 1.8156 23.4173C1.95574 23.598 2.13525 23.7445 2.34048 23.8455C2.54572 23.9464 2.77127 23.9993 3 24C3.39782 24 3.77936 23.842 4.06066 23.5607C4.34196 23.2794 4.5 22.8978 4.5 22.5H10.5C10.5006 22.7126 10.5464 22.9226 10.6344 23.1161C10.7223 23.3096 10.8503 23.4822 11.01 23.6225C11.1697 23.7628 11.3574 23.8675 11.5607 23.9298C11.7639 23.992 11.9781 24.0104 12.1889 23.9836C12.3998 23.9568 12.6026 23.8856 12.7838 23.7745C12.965 23.6634 13.1206 23.5151 13.2402 23.3394C13.3597 23.1636 13.4406 22.9645 13.4774 22.7551C13.5141 22.5458 13.506 22.331 13.4535 22.125C13.9222 21.8654 14.3128 21.4851 14.5848 21.0234C14.8567 20.5618 15.0001 20.0358 15 19.5V7.5C15 6.70435 14.6839 5.94129 14.1213 5.37868C13.5587 4.81607 12.7956 4.5 12 4.5H10.5V0.75C10.5 0.551088 10.421 0.360322 10.2803 0.21967C10.1397 0.0790176 9.94891 0 9.75 0L5.25 0ZM9 4.5H6V1.5H9V4.5ZM13.5 19.5C13.5 19.8978 13.342 20.2794 13.0607 20.5607C12.7794 20.842 12.3978 21 12 21H3C2.60218 21 2.22064 20.842 1.93934 20.5607C1.65804 20.2794 1.5 19.8978 1.5 19.5V7.5C1.5 7.10218 1.65804 6.72064 1.93934 6.43934C2.22064 6.15804 2.60218 6 3 6H12C12.3978 6 12.7794 6.15804 13.0607 6.43934C13.342 6.72064 13.5 7.10218 13.5 7.5V19.5Z" fill="#212121"/>
  <path d="M1.5 0.5C1.69891 0.5 1.88968 0.579018 2.03033 0.71967C2.17098 0.860322 2.25 1.05109 2.25 1.25V11.75C2.25 11.9489 2.17098 12.1397 2.03033 12.2803C1.88968 12.421 1.69891 12.5 1.5 12.5C1.30109 12.5 1.11032 12.421 0.96967 12.2803C0.829018 12.1397 0.75 11.9489 0.75 11.75V1.25C0.75 1.05109 0.829018 0.860322 0.96967 0.71967C1.11032 0.579018 1.30109 0.5 1.5 0.5ZM4.5 0.5C4.69891 0.5 4.88968 0.579018 5.03033 0.71967C5.17098 0.860322 5.25 1.05109 5.25 1.25V11.75C5.25 11.9489 5.17098 12.1397 5.03033 12.2803C4.88968 12.421 4.69891 12.5 4.5 12.5C4.30109 12.5 4.11032 12.421 3.96967 12.2803C3.82902 12.1397 3.75 11.9489 3.75 11.75V1.25C3.75 1.05109 3.82902 0.860322 3.96967 0.71967C4.11032 0.579018 4.30109 0.5 4.5 0.5ZM7.5 0.5C7.69891 0.5 7.88968 0.579018 8.03033 0.71967C8.17098 0.860322 8.25 1.05109 8.25 1.25V11.75C8.25 11.9489 8.17098 12.1397 8.03033 12.2803C7.88968 12.421 7.69891 12.5 7.5 12.5C7.30109 12.5 7.11032 12.421 6.96967 12.2803C6.82902 12.1397 6.75 11.9489 6.75 11.75V1.25C6.75 1.05109 6.82902 0.860322 6.96967 0.71967C7.11032 0.579018 7.30109 0.5 7.5 0.5Z" fill="#212121"/>
</svg>
