<svg width="28" height="28" viewBox="0 0 28 28" fill="none" xmlns="http://www.w3.org/2000/svg">
<path d="M11.5 9.5C11.6989 9.5 11.8897 9.57902 12.0303 9.71967C12.171 9.86032 12.25 10.0511 12.25 10.25V20.75C12.25 20.9489 12.171 21.1397 12.0303 21.2803C11.8897 21.421 11.6989 21.5 11.5 21.5C11.3011 21.5 11.1103 21.421 10.9697 21.2803C10.829 21.1397 10.75 20.9489 10.75 20.75V10.25C10.75 10.0511 10.829 9.86032 10.9697 9.71967C11.1103 9.57902 11.3011 9.5 11.5 9.5ZM14.5 9.5C14.6989 9.5 14.8897 9.57902 15.0303 9.71967C15.171 9.86032 15.25 10.0511 15.25 10.25V20.75C15.25 20.9489 15.171 21.1397 15.0303 21.2803C14.8897 21.421 14.6989 21.5 14.5 21.5C14.3011 21.5 14.1103 21.421 13.9697 21.2803C13.829 21.1397 13.75 20.9489 13.75 20.75V10.25C13.75 10.0511 13.829 9.86032 13.9697 9.71967C14.1103 9.57902 14.3011 9.5 14.5 9.5ZM17.5 9.5C17.6989 9.5 17.8897 9.57902 18.0303 9.71967C18.171 9.86032 18.25 10.0511 18.25 10.25V20.75C18.25 20.9489 18.171 21.1397 18.0303 21.2803C17.8897 21.421 17.6989 21.5 17.5 21.5C17.3011 21.5 17.1103 21.421 16.9697 21.2803C16.829 21.1397 16.75 20.9489 16.75 20.75V10.25C16.75 10.0511 16.829 9.86032 16.9697 9.71967C17.1103 9.57902 17.3011 9.5 17.5 9.5Z" fill="#212121"/>
<path d="M12.25 2C12.0511 2 11.8603 2.07902 11.7197 2.21967C11.579 2.36032 11.5 2.55109 11.5 2.75V6.5H10C9.20435 6.5 8.44129 6.81607 7.87868 7.37868C7.31607 7.94129 7 8.70435 7 9.5V21.5C6.99989 22.0358 7.14326 22.5618 7.41522 23.0234C7.68718 23.4851 8.07781 23.8654 8.5465 24.125C8.49017 24.3467 8.48513 24.5783 8.53176 24.8022C8.57839 25.0261 8.67546 25.2365 8.8156 25.4173C8.95574 25.598 9.13525 25.7445 9.34048 25.8455C9.54572 25.9464 9.77127 25.9993 10 26C10.3978 26 10.7794 25.842 11.0607 25.5607C11.342 25.2794 11.5 24.8978 11.5 24.5H17.5C17.5006 24.7126 17.5464 24.9226 17.6344 25.1161C17.7223 25.3096 17.8503 25.4822 18.01 25.6225C18.1697 25.7628 18.3574 25.8675 18.5607 25.9298C18.7639 25.992 18.9781 26.0104 19.1889 25.9836C19.3998 25.9568 19.6026 25.8856 19.7838 25.7745C19.965 25.6634 20.1206 25.5151 20.2402 25.3394C20.3597 25.1636 20.4406 24.9645 20.4774 24.7551C20.5141 24.5458 20.506 24.331 20.4535 24.125C20.9222 23.8654 21.3128 23.4851 21.5848 23.0234C21.8567 22.5618 22.0001 22.0358 22 21.5V9.5C22 8.70435 21.6839 7.94129 21.1213 7.37868C20.5587 6.81607 19.7956 6.5 19 6.5H17.5V2.75C17.5 2.55109 17.421 2.36032 17.2803 2.21967C17.1397 2.07902 16.9489 2 16.75 2H12.25ZM16 6.5H13V3.5H16V6.5ZM20.5 21.5C20.5 21.8978 20.342 22.2794 20.0607 22.5607C19.7794 22.842 19.3978 23 19 23H10C9.60218 23 9.22064 22.842 8.93934 22.5607C8.65804 22.2794 8.5 21.8978 8.5 21.5V9.5C8.5 9.10218 8.65804 8.72064 8.93934 8.43934C9.22064 8.15804 9.60218 8 10 8H19C19.3978 8 19.7794 8.15804 20.0607 8.43934C20.342 8.72064 20.5 9.10218 20.5 9.5V21.5Z" fill="#212121"/>
</svg>
