<svg width="40" height="40" viewBox="0 0 40 40" fill="none" xmlns="http://www.w3.org/2000/svg">
<path d="M16.4289 13.5889C16.713 13.5889 16.9855 13.7018 17.1865 13.9029C17.3874 14.104 17.5003 14.3768 17.5003 14.6611V29.6731C17.5003 29.9575 17.3874 30.2302 17.1865 30.4313C16.9855 30.6324 16.713 30.7454 16.4289 30.7454C16.1447 30.7454 15.8722 30.6324 15.6712 30.4313C15.4703 30.2302 15.3574 29.9575 15.3574 29.6731V14.6611C15.3574 14.3768 15.4703 14.104 15.6712 13.9029C15.8722 13.7018 16.1447 13.5889 16.4289 13.5889ZM20.7146 13.5889C20.9987 13.5889 21.2712 13.7018 21.4722 13.9029C21.6731 14.104 21.786 14.3768 21.786 14.6611V29.6731C21.786 29.9575 21.6731 30.2302 21.4722 30.4313C21.2712 30.6324 20.9987 30.7454 20.7146 30.7454C20.4304 30.7454 20.1579 30.6324 19.957 30.4313C19.756 30.2302 19.6431 29.9575 19.6431 29.6731V14.6611C19.6431 14.3768 19.756 14.104 19.957 13.9029C20.1579 13.7018 20.4304 13.5889 20.7146 13.5889ZM25.0003 13.5889C25.2844 13.5889 25.557 13.7018 25.7579 13.9029C25.9588 14.104 26.0717 14.3768 26.0717 14.6611V29.6731C26.0717 29.9575 25.9588 30.2302 25.7579 30.4313C25.557 30.6324 25.2844 30.7454 25.0003 30.7454C24.7161 30.7454 24.4436 30.6324 24.2427 30.4313C24.0417 30.2302 23.9289 29.9575 23.9289 29.6731V14.6611C23.9289 14.3768 24.0417 14.104 24.2427 13.9029C24.4436 13.7018 24.7161 13.5889 25.0003 13.5889Z" fill="#F7F7F7"/>
<path d="M17.5 2.86621C17.2158 2.86621 16.9433 2.97918 16.7424 3.18027C16.5415 3.38137 16.4286 3.6541 16.4286 3.93849V9.29989H14.2857C13.1491 9.29989 12.059 9.75178 11.2553 10.5561C10.4515 11.3605 10 12.4515 10 13.589V30.7455C9.99984 31.5115 10.2047 32.2636 10.5932 32.9236C10.9817 33.5835 11.5397 34.1273 12.2093 34.4985C12.1288 34.8154 12.1216 35.1466 12.1882 35.4667C12.2548 35.7869 12.3935 36.0876 12.5937 36.346C12.7939 36.6045 13.0504 36.8139 13.3435 36.9582C13.6367 37.1026 13.959 37.1782 14.2857 37.1792C14.854 37.1792 15.3991 36.9532 15.8009 36.5511C16.2028 36.1489 16.4286 35.6034 16.4286 35.0346H25C25.0009 35.3385 25.0663 35.6388 25.1919 35.9154C25.3176 36.1921 25.5005 36.4389 25.7286 36.6395C25.9568 36.84 26.2249 36.9898 26.5152 37.0788C26.8056 37.1678 27.1115 37.194 27.4128 37.1558C27.714 37.1175 28.0037 37.0156 28.2626 36.8568C28.5215 36.698 28.7437 36.4859 28.9145 36.2346C29.0853 35.9834 29.2008 35.6987 29.2534 35.3994C29.3059 35.1 29.2943 34.793 29.2193 34.4985C29.8888 34.1273 30.4469 33.5835 30.8354 32.9236C31.2239 32.2636 31.4287 31.5115 31.4286 30.7455V13.589C31.4286 12.4515 30.977 11.3605 30.1733 10.5561C29.3696 9.75178 28.2795 9.29989 27.1429 9.29989H25V3.93849C25 3.6541 24.8871 3.38137 24.6862 3.18027C24.4853 2.97918 24.2127 2.86621 23.9286 2.86621H17.5ZM22.8571 9.29989H18.5714V5.01077H22.8571V9.29989ZM29.2857 30.7455C29.2857 31.3143 29.0599 31.8597 28.6581 32.2619C28.2562 32.6641 27.7112 32.8901 27.1429 32.8901H14.2857C13.7174 32.8901 13.1723 32.6641 12.7705 32.2619C12.3686 31.8597 12.1429 31.3143 12.1429 30.7455V13.589C12.1429 13.0202 12.3686 12.4748 12.7705 12.0726C13.1723 11.6704 13.7174 11.4445 14.2857 11.4445H27.1429C27.7112 11.4445 28.2562 11.6704 28.6581 12.0726C29.0599 12.4748 29.2857 13.0202 29.2857 13.589V30.7455Z" fill="#F7F7F7"/>
</svg>
