<svg width="20" height="20" viewBox="0 0 20 20" fill="none" xmlns="http://www.w3.org/2000/svg">
<path d="M18.6386 0.160068L19.8391 1.36058C19.9458 1.46729 19.9307 1.58909 19.7938 1.72597L1.72514 19.7947C1.58825 19.9316 1.46646 19.9466 1.35974 19.8399L0.159233 18.6394C0.0525209 18.5327 0.0676059 18.4109 0.204491 18.274L18.2732 0.205326C18.4101 0.068442 18.5319 0.0533561 18.6386 0.160068Z" fill="#F7F7F7"/>
<path d="M2.55494 0.615482L19.8023 17.8629C19.9392 17.9998 19.9543 18.1216 19.8476 18.2283L18.6471 19.4288C18.5404 19.5355 18.4186 19.5204 18.2817 19.3835L1.03429 2.13613C0.897403 1.99925 0.882317 1.87745 0.98903 1.77074L2.18954 0.570224C2.29625 0.463512 2.41805 0.478598 2.55494 0.615482Z" fill="#F7F7F7"/>
</svg>
