<svg width="23" height="23" viewBox="0 0 23 23" fill="none" xmlns="http://www.w3.org/2000/svg">
<path d="M11.5 11.5C13.025 11.5 14.4875 10.8942 15.5659 9.81586C16.6442 8.73753 17.25 7.27499 17.25 5.75C17.25 4.22501 16.6442 2.76247 15.5659 1.68414C14.4875 0.605802 13.025 0 11.5 0C9.97501 0 8.51247 0.605802 7.43414 1.68414C6.3558 2.76247 5.75 4.22501 5.75 5.75C5.75 7.27499 6.3558 8.73753 7.43414 9.81586C8.51247 10.8942 9.97501 11.5 11.5 11.5ZM15.3333 5.75C15.3333 6.76666 14.9295 7.74169 14.2106 8.46058C13.4917 9.17947 12.5167 9.58333 11.5 9.58333C10.4833 9.58333 9.50831 9.17947 8.78942 8.46058C8.07053 7.74169 7.66667 6.76666 7.66667 5.75C7.66667 4.73334 8.07053 3.75831 8.78942 3.03942C9.50831 2.32053 10.4833 1.91667 11.5 1.91667C12.5167 1.91667 13.4917 2.32053 14.2106 3.03942C14.9295 3.75831 15.3333 4.73334 15.3333 5.75ZM23 21.0833C23 23 21.0833 23 21.0833 23H1.91667C1.91667 23 0 23 0 21.0833C0 19.1667 1.91667 13.4167 11.5 13.4167C21.0833 13.4167 23 19.1667 23 21.0833ZM21.0833 21.0757C21.0814 20.6042 20.7882 19.1858 19.4887 17.8863C18.239 16.6367 15.8872 15.3333 11.5 15.3333C7.11275 15.3333 4.761 16.6367 3.51133 17.8863C2.21183 19.1858 1.9205 20.6042 1.91667 21.0757H21.0833Z" fill="#212121"/>
</svg>
