<svg width="23" height="23" viewBox="0 0 23 23" fill="none" xmlns="http://www.w3.org/2000/svg">
<path d="M4.9502e-08 7.18729C-0.000195118 8.85091 0.576719 10.4631 1.63236 11.7489C2.688 13.0347 4.15699 13.9145 5.78881 14.2382C5.8828 13.2085 6.14706 12.2015 6.57081 11.2583C5.31156 10.8328 4.50225 9.86679 4.3125 8.49541H3.59375V7.88304H4.26363V7.25916C4.26267 7.19208 4.26458 7.12739 4.26937 7.0651H3.59375V6.45129H4.32831C4.65175 4.65729 6.05619 3.59354 8.16644 3.59354C8.62069 3.59354 9.01456 3.6381 9.34375 3.71572V4.76941C8.95919 4.6844 8.56598 4.64484 8.17219 4.65154C6.85112 4.65154 5.96131 5.32141 5.67956 6.45129H8.43525V7.0651H5.589C5.58517 7.13218 5.58373 7.20262 5.58469 7.27641V7.88304H8.43525V8.49685H5.64937C5.819 9.36222 6.32212 9.97747 7.09406 10.2635C7.85096 9.00998 8.8919 7.95187 10.1329 7.17456C11.3739 6.39725 12.7802 5.9225 14.2384 5.7886C13.8859 4.04277 12.8979 2.48992 11.466 1.43084C10.034 0.371754 8.25992 -0.118178 6.48738 0.0559438C4.71485 0.230066 3.07001 1.05585 1.8715 2.37333C0.672984 3.69082 0.0060907 5.40623 4.9502e-08 7.18729ZM23 15.0935C23 17.1904 22.167 19.2014 20.6843 20.6841C19.2016 22.1668 17.1906 22.9998 15.0938 22.9998C12.9969 22.9998 10.9859 22.1668 9.50319 20.6841C8.02048 19.2014 7.1875 17.1904 7.1875 15.0935C7.1875 12.9967 8.02048 10.9857 9.50319 9.50297C10.9859 8.02026 12.9969 7.18729 15.0938 7.18729C17.1906 7.18729 19.2016 8.02026 20.6843 9.50297C22.167 10.9857 23 12.9967 23 15.0935ZM11.8594 16.9939C11.9586 18.1942 12.9317 19.1286 14.6826 19.2393V20.1248H15.4589V19.2335C17.2687 19.1099 18.3281 18.1698 18.3281 16.8042C18.3281 15.5607 17.5188 14.921 16.0713 14.5904L15.4589 14.4467V12.0374C16.2351 12.1237 16.7296 12.5362 16.8475 13.1083H18.2103C18.1096 11.9526 17.0904 11.0484 15.4589 10.9492V10.0623H14.6826V10.9665C13.1359 11.1145 12.0836 12.0187 12.0836 13.2981C12.0836 14.4294 12.8656 15.1496 14.168 15.4443L14.6826 15.5665V18.1252C13.8862 18.0102 13.3601 17.5847 13.2408 16.9939H11.8594ZM14.6769 14.2698C13.9121 14.0973 13.4981 13.7466 13.4981 13.2176C13.4981 12.6282 13.9452 12.184 14.6826 12.0547V14.2684H14.6754L14.6769 14.2698ZM15.571 15.7706C16.4982 15.979 16.9266 16.3169 16.9266 16.9149C16.9266 17.5962 16.3947 18.0648 15.4603 18.1511V15.7447L15.571 15.7706Z" fill="#212121"/>
</svg>
