<svg width="22" height="23" viewBox="0 0 22 23" fill="none" xmlns="http://www.w3.org/2000/svg">
<path d="M10.3555 3.76562H11.6445C11.7591 3.76562 11.8164 3.82292 11.8164 3.9375V19.0625C11.8164 19.1771 11.7591 19.2344 11.6445 19.2344H10.3555C10.2409 19.2344 10.1836 19.1771 10.1836 19.0625V3.9375C10.1836 3.82292 10.2409 3.76562 10.3555 3.76562Z" fill="#212121"/>
<path d="M3.78125 10.6836H18.2188C18.3333 10.6836 18.3906 10.7409 18.3906 10.8555V12.1445C18.3906 12.2591 18.3333 12.3164 18.2188 12.3164H3.78125C3.66667 12.3164 3.60938 12.2591 3.60938 12.1445V10.8555C3.60938 10.7409 3.66667 10.6836 3.78125 10.6836Z" fill="#212121"/>
</svg>
