<svg width="23" height="23" viewBox="0 0 23 23" fill="none" xmlns="http://www.w3.org/2000/svg">
<path d="M9.57755 0C4.29904 0 0 4.29904 0 9.57755C0 14.8561 4.29904 19.1551 9.57755 19.1551C11.873 19.1551 13.9807 18.34 15.6327 16.9871L21.3512 22.7055C21.4395 22.7974 21.5452 22.8708 21.6621 22.9214C21.7791 22.9719 21.905 22.9987 22.0324 23C22.1598 23.0012 22.2862 22.9771 22.4042 22.9289C22.5222 22.8808 22.6293 22.8096 22.7195 22.7195C22.8096 22.6293 22.8808 22.5222 22.9289 22.4042C22.9771 22.2862 23.0012 22.1598 23 22.0324C22.9987 21.905 22.9719 21.7791 22.9214 21.6621C22.8708 21.5452 22.7974 21.4395 22.7055 21.3512L16.9871 15.6327C18.34 13.9807 19.1551 11.873 19.1551 9.57755C19.1551 4.29904 14.8561 0 9.57755 0ZM9.57755 1.91551C13.821 1.91551 17.2396 5.33406 17.2396 9.57755C17.2396 13.821 13.821 17.2396 9.57755 17.2396C5.33406 17.2396 1.91551 13.821 1.91551 9.57755C1.91551 5.33406 5.33406 1.91551 9.57755 1.91551Z" fill="#212121"/>
</svg>
