<svg width="52" height="35" viewBox="0 0 52 35" fill="none" xmlns="http://www.w3.org/2000/svg">
<rect x="0.5" y="0.5" width="51" height="34" rx="3.5" fill="#C2FAE5" stroke="#F3F3F3"/>
<path d="M6.34774 17.6543C6.34774 16.8812 5.75387 16.3382 5.02418 16.3382C4.29449 16.3382 3.70061 16.8907 3.70061 17.6543C3.70061 18.4089 4.29449 18.97 5.02418 18.97C5.75476 18.97 6.34774 18.4273 6.34774 17.6543ZM6.35839 19.9546V19.3565C5.99843 19.7705 5.46226 20.0277 4.82089 20.0277C3.48757 20.0277 2.47559 19.0155 2.47559 17.6543C2.47559 16.3016 3.52618 15.2714 4.85063 15.2714C5.4738 15.2714 5.99887 15.5294 6.35884 15.9336V15.354H7.5559V19.9546H6.35839ZM13.3695 18.933C12.9505 18.933 12.8342 18.7859 12.8342 18.3998V16.3571H13.6034V15.3536H12.8342V14.2314H11.6074V15.3536H10.0273V15.0741C10.0273 14.6871 10.1835 14.5396 10.6118 14.5396H10.8808V13.6475H10.2905C9.27849 13.6475 8.80179 13.9605 8.80179 14.9171V15.3531H8.12048V16.3571H8.80179V19.9541H10.0286V16.3571H11.6087V18.6114C11.6087 19.55 11.9878 19.955 12.9802 19.955H13.6131V18.9334H13.369L13.3695 18.933ZM17.7685 17.2398C17.681 16.6421 17.1648 16.2831 16.5616 16.2831C15.958 16.2831 15.4618 16.6327 15.3357 17.2398H17.768H17.7685ZM15.3255 17.9578C15.4134 18.6385 15.9291 19.0254 16.5812 19.0254C17.0969 19.0254 17.4964 18.795 17.7294 18.4269H18.9855C18.693 19.4021 17.7685 20.0277 16.5519 20.0277C15.0827 20.0277 14.0512 19.0529 14.0512 17.6633C14.0512 16.2741 15.1413 15.271 16.5821 15.271C18.0321 15.271 19.0827 16.2831 19.0827 17.6633C19.0827 17.7648 19.0734 17.8654 19.0539 17.9578H15.3255ZM26.8816 17.6543C26.8816 16.9087 26.2877 16.3382 25.5581 16.3382C24.8284 16.3382 24.2345 16.8907 24.2345 17.6543C24.2345 18.4089 24.8284 18.97 25.5581 18.97C26.2877 18.97 26.8816 18.3998 26.8816 17.6543ZM23.0272 15.354H24.2243V15.9521C24.5838 15.5285 25.1191 15.2714 25.7618 15.2714C27.0756 15.2714 28.1066 16.293 28.1066 17.6448C28.1066 18.9979 27.056 20.0285 25.7325 20.0285C25.1191 20.0285 24.6131 19.7981 24.2633 19.412V21.8477H23.0272V15.354ZM32.4209 17.6543C32.4209 16.8812 31.8279 16.3382 31.0973 16.3382C30.3676 16.3382 29.7737 16.8907 29.7737 17.6543C29.7737 18.4089 30.3676 18.97 31.0973 18.97C31.8279 18.97 32.4209 18.4273 32.4209 17.6543ZM32.4315 19.9546V19.3565C32.0716 19.7705 31.5354 20.0277 30.894 20.0277C29.5607 20.0277 28.5487 19.0155 28.5487 17.6543C28.5487 16.3016 29.5993 15.2714 30.9233 15.2714C31.546 15.2714 32.0716 15.5294 32.4315 15.9336V15.354H33.6281V19.9546H32.4315ZM20.8701 15.805C20.8701 15.805 21.1746 15.2719 21.9207 15.2719C22.2398 15.2719 22.4462 15.3751 22.4462 15.3751V16.5488C22.4462 16.5488 21.9961 16.2861 21.5825 16.339C21.1688 16.3919 20.9074 16.7509 20.9087 17.2316V19.9554H19.673V15.3548H20.8701V15.805ZM39.218 15.354L36.1963 21.8331H34.922L36.1084 19.3281L34.1022 15.354H35.5465L36.72 18.0094L37.9242 15.354H39.218ZM48.8642 15.2495L45.8682 13.6152C44.9894 13.1354 43.89 13.7347 43.89 14.6953V14.863C43.89 15.0143 43.9756 15.1545 44.1141 15.2297L44.68 15.5384C44.846 15.6296 45.0529 15.5161 45.0529 15.3351V14.918C45.0529 14.7095 45.2917 14.5788 45.4825 14.6832L48.0773 16.0995C48.2681 16.2036 48.2681 16.4641 48.0773 16.5682L45.4825 17.9841C45.2917 18.0881 45.0533 17.9583 45.0533 17.7493V17.5274C45.0533 16.5673 43.9539 15.9667 43.0737 16.4474L40.0777 18.0821C39.878 18.1884 39.7114 18.3447 39.5953 18.5347C39.4793 18.7247 39.4181 18.9414 39.4181 19.1622C39.4181 19.3829 39.4793 19.5996 39.5953 19.7896C39.7114 19.9796 39.878 20.1359 40.0777 20.2422L43.0737 21.8765C43.953 22.3563 45.0533 21.757 45.0533 20.7964V20.6287C45.0528 20.5538 45.0317 20.4804 44.9923 20.4159C44.9528 20.3515 44.8964 20.2984 44.8287 20.262L44.2633 19.9524C44.0973 19.8617 43.89 19.9752 43.89 20.1562V20.5733C43.89 20.7818 43.6512 20.9121 43.4608 20.8076L40.8656 19.3917C40.8223 19.3686 40.7862 19.3346 40.761 19.2934C40.7359 19.2521 40.7226 19.2051 40.7226 19.1572C40.7226 19.1093 40.7359 19.0623 40.761 19.021C40.7862 18.9798 40.8223 18.9458 40.8656 18.9227L43.4608 17.5064C43.6516 17.4019 43.89 17.5322 43.89 17.7411V17.963C43.89 18.9231 44.989 19.5237 45.8682 19.0431L48.8642 17.4083C49.0638 17.3021 49.2302 17.1459 49.3461 16.9561C49.4621 16.7662 49.5232 16.5497 49.5232 16.3291C49.5232 16.1086 49.4621 15.892 49.3461 15.7022C49.2302 15.5124 49.0638 15.3562 48.8642 15.2499V15.2495Z" fill="black"/>
</svg>
