<svg width="51" height="35" viewBox="0 0 51 35" fill="none" xmlns="http://www.w3.org/2000/svg">
<rect x="0.5" y="0.5" width="50" height="34" rx="3.5" fill="#006FCF" stroke="#F3F3F3"/>
<path fill-rule="evenodd" clip-rule="evenodd" d="M10.4305 25.2822V18.077H18.6289L19.5085 19.144L20.4172 18.077H50.1753V24.7853C50.1753 24.7853 49.3971 25.275 48.4971 25.2822H32.0194L31.0276 24.1464V25.2822H27.7779V23.3434C27.7779 23.3434 27.3339 23.614 26.3742 23.614H25.2681V25.2822H20.3476L19.4693 24.1923L18.5775 25.2822H10.4305ZM0.878906 12.6465L2.72348 8.63574H5.91349L6.96031 10.8824V8.63574H10.9258L11.5489 10.2596L12.1531 8.63574H29.9539V9.4521C29.9539 9.4521 30.8897 8.63574 32.4276 8.63574L38.2033 8.65457L39.2321 10.8718V8.63574H42.5506L43.4639 9.90939V8.63574H46.8129V15.841H43.4639L42.5886 14.5632V15.841H37.713L37.2227 14.7052H35.912L35.4296 15.841H32.1231C30.7998 15.841 29.9539 15.0413 29.9539 15.0413V15.841H24.9686L23.9791 14.7052V15.841H5.44091L4.95093 14.7052H3.64438L3.15787 15.841H0.878906V12.6465ZM0.888123 14.919L3.37606 9.52399H5.26222L7.74777 14.919H6.09232L5.63565 13.8387H2.96695L2.5079 14.919H0.888123ZM5.11029 12.6674L4.29684 10.7796L3.48101 12.6674H5.11029ZM7.92004 14.9181V9.52306L10.2218 9.53103L11.5606 13.0094L12.8674 9.52306H15.1507V14.9181H13.7046V10.9428L12.1717 14.9181H10.9034L9.36618 10.9428V14.9181H7.92004ZM16.1395 14.9181V9.52308H20.8585V10.7299H17.6008V11.6527H20.7824V12.7885H17.6008V13.7468H20.8585V14.9181H16.1395ZM21.6957 14.919V9.52399H24.9138C25.9802 9.52399 26.9356 10.139 26.9356 11.2743C26.9356 12.2448 26.13 12.8699 25.3491 12.9314L27.2519 14.919H25.4847L23.7508 13.0024H23.1419V14.919H21.6957ZM24.7949 10.7308H23.1419V11.8666H24.8163C25.1062 11.8666 25.4799 11.6571 25.4799 11.2987C25.4799 11.0201 25.1915 10.7308 24.7949 10.7308ZM29.0025 14.9181H27.5259V9.52308H29.0025V14.9181ZM32.5037 14.9181H32.185C30.6429 14.9181 29.7066 13.785 29.7066 12.2428C29.7066 10.6625 30.6324 9.52308 32.5798 9.52308H34.1782V10.8009H32.5214C31.7308 10.8009 31.1717 11.3763 31.1717 12.2561C31.1717 13.3009 31.811 13.7397 32.732 13.7397H33.1126L32.5037 14.9181ZM33.1632 14.9191L35.6512 9.52403H37.5373L40.0229 14.9191H38.3674L37.9108 13.8387H35.2421L34.783 14.9191H33.1632ZM37.3851 12.6674L36.5717 10.7796L35.7558 12.6674H37.3851ZM40.1904 14.9181V9.52306H42.029L44.3766 12.9127V9.52306H45.8227V14.9181H44.0436L41.6365 11.4397V14.9181H40.1904ZM11.4205 24.3594V18.9644H16.1395V20.1712H12.8819V21.094H16.0634V22.2298H12.8819V23.1881H16.1395V24.3594H11.4205ZM34.5435 24.3594V18.9644H39.2625V20.1712H36.0049V21.094H39.1712V22.2298H36.0049V23.1881H39.2625V24.3594H34.5435ZM16.3233 24.3595L18.6209 21.6952L16.2686 18.9644H18.0905L19.4914 20.6526L20.8972 18.9644H22.6477L20.3263 21.6619L22.6282 24.3595H20.8065L19.4463 22.6979L18.119 24.3595H16.3233ZM22.7993 24.3603V18.9653H25.9937C27.3044 18.9653 28.0701 19.7532 28.0701 20.7799C28.0701 22.0193 27.0938 22.6566 25.8058 22.6566H24.2835V24.3603H22.7993ZM25.8873 20.1854H24.2841V21.4277H25.8825C26.3049 21.4277 26.6008 21.1666 26.6008 20.8065C26.6008 20.4232 26.3034 20.1854 25.8873 20.1854ZM28.6981 24.3594V18.9644H31.9162C32.9825 18.9644 33.938 19.5794 33.938 20.7147C33.938 21.6852 33.1324 22.3103 32.3515 22.3718L34.2543 24.3594H32.4871L30.7531 22.4428H30.1442V24.3594H28.6981ZM31.7973 20.1712H30.1442V21.307H31.8187C32.1085 21.307 32.4823 21.0975 32.4823 20.7391C32.4823 20.4605 32.1938 20.1712 31.7973 20.1712ZM39.9323 24.3594V23.1881H42.8265C43.2547 23.1881 43.4401 22.9723 43.4401 22.7356C43.4401 22.5088 43.2553 22.2795 42.8265 22.2795H41.5186C40.3818 22.2795 39.7487 21.6335 39.7487 20.6637C39.7487 19.7986 40.3285 18.9644 42.0178 18.9644H44.834L44.2251 20.1783H41.7894C41.3239 20.1783 41.1805 20.4061 41.1805 20.6237C41.1805 20.8474 41.3577 21.094 41.7133 21.094H43.0834C44.3506 21.094 44.9006 21.7645 44.9006 22.6424C44.9006 23.5863 44.2878 24.3594 43.0144 24.3594H39.9323ZM45.0276 24.3595V23.1882H47.9218C48.35 23.1882 48.5355 22.9723 48.5355 22.7356C48.5355 22.5088 48.3506 22.2795 47.9218 22.2795H46.614C45.4771 22.2795 44.844 21.6335 44.844 20.6637C44.844 19.7986 45.4238 18.9644 47.1131 18.9644H49.9293L49.3204 20.1783H46.8848C46.4192 20.1783 46.2759 20.4062 46.2759 20.6237C46.2759 20.8474 46.453 21.094 46.8087 21.094H48.1787C49.446 21.094 49.9959 21.7645 49.9959 22.6424C49.9959 23.5864 49.3831 24.3595 48.1097 24.3595H45.0276Z" fill="white"/>
</svg>
