<svg width="50" height="35" viewBox="0 0 50 35" fill="none" xmlns="http://www.w3.org/2000/svg">
<rect x="0.5" y="0.5" width="49" height="34" rx="3.5" fill="white" stroke="#F3F3F3"/>
<path fill-rule="evenodd" clip-rule="evenodd" d="M15.1528 13.0607C14.7891 13.5024 14.2073 13.8507 13.6254 13.8009C13.5526 13.2038 13.8375 12.5693 14.1709 12.1774C14.5346 11.7233 15.171 11.3999 15.6862 11.375C15.7469 11.997 15.5105 12.6066 15.1528 13.0607ZM15.6797 13.9191C15.1671 13.8889 14.6993 14.0774 14.3215 14.2296C14.0783 14.3276 13.8724 14.4105 13.7158 14.4105C13.54 14.4105 13.3256 14.3231 13.0849 14.225C12.7695 14.0964 12.4089 13.9494 12.0307 13.9565C11.1639 13.9689 10.3578 14.4728 9.91529 15.2752C9.00608 16.88 9.67889 19.2562 10.5578 20.5625C10.9882 21.2094 11.5034 21.9185 12.1823 21.8937C12.4809 21.8821 12.6958 21.7885 12.9181 21.6917C13.1741 21.5803 13.44 21.4645 13.8552 21.4645C14.256 21.4645 14.5103 21.5772 14.7544 21.6855C14.9865 21.7884 15.2094 21.8873 15.5403 21.8812C16.2434 21.8688 16.6859 21.2343 17.1163 20.5874C17.5807 19.8931 17.7848 19.2155 17.8158 19.1126L17.8194 19.1007C17.8186 19.1 17.8129 19.0973 17.8028 19.0925C17.6475 19.0196 16.4609 18.4621 16.4495 16.9671C16.4381 15.7123 17.3907 15.0766 17.5407 14.9765L17.5407 14.9765C17.5498 14.9704 17.556 14.9663 17.5587 14.9642C16.9526 14.0435 16.007 13.944 15.6797 13.9191ZM20.5475 21.8128V12.1152H24.0934C25.924 12.1152 27.2029 13.409 27.2029 15.3C27.2029 17.191 25.8997 18.4973 24.0449 18.4973H22.0144V21.8128H20.5475ZM22.0139 13.3842H23.705C24.9779 13.3842 25.7053 14.0809 25.7053 15.3063C25.7053 16.5317 24.9779 17.2346 23.699 17.2346H22.0139V13.3842ZM32.0455 20.6496C31.6576 21.4085 30.8029 21.8874 29.8816 21.8874C28.5178 21.8874 27.5661 21.0539 27.5661 19.7974C27.5661 18.5533 28.4875 17.838 30.1907 17.7322L32.0213 17.6203V17.0853C32.0213 16.2953 31.5182 15.8661 30.6211 15.8661C29.8816 15.8661 29.3421 16.258 29.233 16.8552H27.9116C27.9541 15.5986 29.1057 14.6842 30.6635 14.6842C32.3425 14.6842 33.4336 15.5862 33.4336 16.9858V21.8128H32.0758V20.6496H32.0455ZM30.2756 20.7367C29.4937 20.7367 28.9966 20.351 28.9966 19.7601C28.9966 19.1505 29.4755 18.7959 30.3908 18.7399L32.0213 18.6342V19.1816C32.0213 20.0898 31.2697 20.7367 30.2756 20.7367ZM37.9372 22.1922C37.3493 23.8904 36.6765 24.4502 35.246 24.4502C35.1369 24.4502 34.7732 24.4378 34.6883 24.4129V23.2497C34.7792 23.2621 35.0035 23.2746 35.1187 23.2746C35.7673 23.2746 36.1309 22.9947 36.3552 22.2669L36.4886 21.8377L34.0034 14.7775H35.5369L37.2644 20.5065H37.2947L39.0222 14.7775H40.5133L37.9372 22.1922Z" fill="black"/>
</svg>
