<svg width="49" height="35" viewBox="0 0 49 35" fill="none" xmlns="http://www.w3.org/2000/svg">
<rect x="0.5" y="0.5" width="48" height="34" rx="3.5" fill="white" stroke="#F3F3F3"/>
<path fill-rule="evenodd" clip-rule="evenodd" d="M23.5848 21.103V17.1558V17.155H25.6465C26.4965 17.1556 27.2108 16.8789 27.7895 16.3251C28.3744 15.7996 28.7014 15.0439 28.6848 14.2563C28.6963 13.473 28.3699 12.7229 27.7895 12.199C27.2159 11.6422 26.4444 11.3384 25.6465 11.3551H22.3369V21.103H23.5848ZM23.5842 15.958V12.5552V12.5544H25.6769C26.1434 12.5413 26.593 12.7296 26.9116 13.0717C27.2322 13.3845 27.4131 13.8141 27.4131 14.2628C27.4131 14.7116 27.2322 15.1412 26.9116 15.454C26.5891 15.7888 26.1408 15.9718 25.6769 15.958H23.5842Z" fill="#5F6368"/>
<path fill-rule="evenodd" clip-rule="evenodd" d="M33.7453 14.9578C33.2116 14.4632 32.4835 14.2158 31.5612 14.2158C30.3764 14.2158 29.4817 14.6514 28.8771 15.5225L29.9762 16.217C30.3823 15.627 30.9339 15.3319 31.6309 15.3319C32.0754 15.3267 32.5054 15.4897 32.8354 15.7885C33.1644 16.0615 33.3537 16.4684 33.3508 16.8968V17.183C32.8713 16.9108 32.2611 16.7747 31.5201 16.7747C30.652 16.7757 29.9581 16.98 29.4383 17.3876C28.9185 17.7952 28.6585 18.344 28.6585 19.0342C28.6472 19.6626 28.9189 20.2626 29.398 20.6675C29.8909 21.103 30.5035 21.3208 31.2357 21.3208C32.0934 21.3208 32.7806 20.9397 33.2973 20.1775H33.3516V21.103H34.5452V16.9925C34.5457 16.1307 34.2791 15.4525 33.7453 14.9578ZM30.3607 19.878C30.0993 19.689 29.9451 19.3847 29.9468 19.0614C29.9468 18.6982 30.1165 18.3956 30.4583 18.1467C30.7968 17.9015 31.2194 17.7788 31.7263 17.7788C32.4224 17.7788 32.9649 17.9344 33.354 18.2455C33.354 18.7713 33.1473 19.2294 32.7339 19.6198C32.3616 19.9935 31.8569 20.2038 31.3303 20.2047C30.9792 20.2113 30.6366 20.0959 30.3607 19.878Z" fill="#5F6368"/>
<path fill-rule="evenodd" clip-rule="evenodd" d="M41.3966 14.4336L37.2298 24.043H35.9417L37.4879 20.6807L34.748 14.4336H36.1044L38.0847 19.2247H38.1119L40.0379 14.4336H41.3966Z" fill="#5F6368"/>
<path fill-rule="evenodd" clip-rule="evenodd" d="M18.5434 16.3057C18.5439 15.924 18.5117 15.5431 18.4473 15.167H13.1846V17.3238H16.1988C16.0742 18.0198 15.6716 18.6346 15.0843 19.0255V20.4255H16.8832C17.9365 19.451 18.5434 18.0098 18.5434 16.3057Z" fill="#4285F4"/>
<path fill-rule="evenodd" clip-rule="evenodd" d="M13.1843 21.7782C14.6902 21.7782 15.9583 21.282 16.8829 20.4264L15.084 19.0264C14.5833 19.3671 13.9384 19.5616 13.1843 19.5616C11.7287 19.5616 10.4932 18.5769 10.0514 17.25H8.19824V18.6928C9.1455 20.5843 11.0747 21.7781 13.1843 21.7782Z" fill="#34A853"/>
<path fill-rule="evenodd" clip-rule="evenodd" d="M10.0509 17.2494C9.81738 16.5541 9.81738 15.8012 10.0509 15.1059V13.6631H8.19774C7.40544 15.2452 7.40544 17.1101 8.19774 18.6922L10.0509 17.2494Z" fill="#FBBC04"/>
<path fill-rule="evenodd" clip-rule="evenodd" d="M13.1843 12.7942C13.9801 12.7811 14.7491 13.0829 15.325 13.6342L16.9178 12.0358C15.9078 11.0839 14.5698 10.5613 13.1843 10.5775C11.0747 10.5776 9.1455 11.7714 8.19824 13.663L10.0514 15.1057C10.4932 13.7789 11.7287 12.7942 13.1843 12.7942Z" fill="#EA4335"/>
</svg>
