<svg width="51" height="35" viewBox="0 0 51 35" fill="none" xmlns="http://www.w3.org/2000/svg">
<rect x="0.5" y="0.5" width="50" height="34" rx="3.5" fill="#F4B6C7" stroke="#F3F3F3"/>
<path fill-rule="evenodd" clip-rule="evenodd" d="M6.51825 22.5717H4.39648V13.125H6.51825V22.5717ZM11.8172 13.125H9.74083C9.74083 14.8634 8.95838 16.4591 7.59417 17.503L6.77155 18.1323L9.95895 22.5721H12.5796L9.64678 18.4868C11.037 17.0727 11.8172 15.1702 11.8172 13.125ZM15.2017 22.5686H13.1979V13.1263H15.2017V22.5686ZM41.456 16.4553V16.0375H43.3704V22.5691H41.456V22.1517C40.9152 22.5285 40.2624 22.75 39.5583 22.75C37.6949 22.75 36.1843 21.2069 36.1843 19.3035C36.1843 17.4 37.6949 15.8569 39.5583 15.8569C40.2624 15.8569 40.9152 16.0784 41.456 16.4553ZM39.7149 20.984C40.673 20.984 41.4496 20.2316 41.4496 19.3035C41.4496 18.3753 40.673 17.6231 39.7149 17.6231C38.7569 17.6231 37.9803 18.3753 37.9803 19.3035C37.9803 20.2316 38.7569 20.984 39.7149 20.984ZM44.2013 21.4797C44.2013 20.8018 44.7392 20.2524 45.4026 20.2524C46.0661 20.2524 46.604 20.8018 46.604 21.4797C46.604 22.1573 46.0661 22.7068 45.4026 22.7068C44.7392 22.7068 44.2013 22.1573 44.2013 21.4797ZM32.7819 15.8618C32.0172 15.8618 31.2934 16.1044 30.8095 16.7735V16.0379H28.9034V22.5692H30.8329V19.1368C30.8329 18.1435 31.485 17.6571 32.27 17.6571C33.1114 17.6571 33.5951 18.1706 33.5951 19.1232V22.5692H35.5072V18.4156C35.5072 16.8955 34.3241 15.8618 32.7819 15.8618ZM26.1352 16.0377V16.8884C26.519 16.3781 27.234 16.038 28.0115 16.038V17.9386C28.0078 17.9386 28.0043 17.9384 28.0008 17.9382C27.9968 17.938 27.9928 17.9378 27.9887 17.9378C27.2312 17.9378 26.1396 18.4908 26.1396 19.5197V22.5692H24.1752V16.0377H26.1352ZM21.2587 16.0375V16.4553C20.7179 16.0785 20.0651 15.857 19.3611 15.857C17.4977 15.857 15.9871 17.4 15.9871 19.3035C15.9871 21.2069 17.4977 22.75 19.3611 22.75C20.0651 22.75 20.7179 22.5285 21.2587 22.1517V22.5692H23.1732V16.0375H21.2587ZM21.2524 19.3035C21.2524 20.2316 20.4758 20.984 19.5177 20.984C18.5597 20.984 17.783 20.2316 17.783 19.3035C17.783 18.3754 18.5597 17.6231 19.5177 17.6231C20.4758 17.6231 21.2524 18.3754 21.2524 19.3035Z" fill="#17120F"/>
</svg>
