<svg width="49" height="35" viewBox="0 0 49 35" fill="none" xmlns="http://www.w3.org/2000/svg">
<rect x="0.5" y="0.5" width="48" height="34" rx="3.5" fill="white" stroke="#F3F3F3"/>
<path fill-rule="evenodd" clip-rule="evenodd" d="M17.9516 27.0292V28.3215V29.6137H17.4048V29.2999C17.2313 29.5327 16.9681 29.6787 16.6104 29.6787C15.9051 29.6787 15.3523 29.1112 15.3523 28.3215C15.3523 27.5324 15.9051 26.9642 16.6104 26.9642C16.9681 26.9642 17.2313 27.1103 17.4048 27.343V27.0292H17.9516ZM16.6784 27.494C16.2051 27.494 15.9154 27.8672 15.9154 28.3215C15.9154 28.7757 16.2051 29.1489 16.6784 29.1489C17.1307 29.1489 17.4361 28.7918 17.4361 28.3215C17.4361 27.8511 17.1307 27.494 16.6784 27.494ZM36.4313 28.3215C36.4313 27.8672 36.721 27.494 37.1943 27.494C37.6472 27.494 37.952 27.8511 37.952 28.3215C37.952 28.7918 37.6472 29.1489 37.1943 29.1489C36.721 29.1489 36.4313 28.7757 36.4313 28.3215ZM38.4681 25.9913V28.3215V29.6137H37.9207V29.2999C37.7472 29.5327 37.484 29.6787 37.1263 29.6787C36.421 29.6787 35.8682 29.1112 35.8682 28.3215C35.8682 27.5324 36.421 26.9642 37.1263 26.9642C37.484 26.9642 37.7472 27.1103 37.9207 27.343V25.9913H38.4681ZM24.7397 27.4674C25.092 27.4674 25.3184 27.6945 25.3762 28.0943H24.0712C24.1296 27.7211 24.35 27.4674 24.7397 27.4674ZM23.4978 28.3215C23.4978 27.5157 24.0133 26.9642 24.7505 26.9642C25.4551 26.9642 25.9393 27.5157 25.9448 28.3215C25.9448 28.397 25.9393 28.4675 25.9339 28.5375L24.0663 28.5375C24.1452 29.0029 24.4662 29.1706 24.8185 29.1706C25.0709 29.1706 25.3395 29.0728 25.5503 28.9001L25.8183 29.3167C25.5129 29.5815 25.166 29.6787 24.7872 29.6787C24.0344 29.6787 23.4978 29.1434 23.4978 28.3215ZM31.3537 28.3215C31.3537 27.8672 31.6433 27.494 32.1167 27.494C32.569 27.494 32.8743 27.8511 32.8743 28.3215C32.8743 28.7918 32.569 29.1489 32.1167 29.1489C31.6433 29.1489 31.3537 28.7757 31.3537 28.3215ZM33.3899 27.0292V28.3215V29.6137H32.843V29.2999C32.669 29.5327 32.4064 29.6787 32.0487 29.6787C31.3434 29.6787 30.7905 29.1112 30.7905 28.3215C30.7905 27.5324 31.3434 26.9642 32.0487 26.9642C32.4064 26.9642 32.669 27.1103 32.843 27.343V27.0292H33.3899ZM28.2652 28.3215C28.2652 29.1056 28.7964 29.6787 29.6071 29.6787C29.9859 29.6787 30.2382 29.5921 30.5117 29.3705L30.2491 28.9162C30.0437 29.0679 29.8281 29.1489 29.5908 29.1489C29.1542 29.1434 28.8332 28.8191 28.8332 28.3215C28.8332 27.8239 29.1542 27.4996 29.5908 27.494C29.8281 27.494 30.0437 27.5751 30.2491 27.7267L30.5117 27.2724C30.2382 27.0509 29.9859 26.9642 29.6071 26.9642C28.7964 26.9642 28.2652 27.5373 28.2652 28.3215ZM34.6527 27.343C34.7949 27.1159 35.0002 26.9642 35.3158 26.9642C35.4266 26.9642 35.5844 26.9859 35.7055 27.0348L35.5368 27.5646C35.4212 27.5157 35.3056 27.4996 35.1947 27.4996C34.837 27.4996 34.6581 27.7372 34.6581 28.1649V29.6137H34.1107V27.0292H34.6527V27.343ZM20.6563 27.2347C20.3931 27.0564 20.0306 26.9642 19.6307 26.9642C18.9935 26.9642 18.5833 27.278 18.5833 27.7917C18.5833 28.2132 18.8887 28.4731 19.4512 28.5542L19.7096 28.5919C20.0095 28.6352 20.151 28.7163 20.151 28.8624C20.151 29.0623 19.9511 29.1762 19.5777 29.1762C19.1988 29.1762 18.9254 29.0518 18.7411 28.9057L18.4834 29.3433C18.7833 29.5704 19.1621 29.6787 19.5722 29.6787C20.2986 29.6787 20.7195 29.3272 20.7195 28.8352C20.7195 28.3809 20.3883 28.1432 19.8408 28.0621L19.5831 28.0238C19.3464 27.9916 19.1567 27.9433 19.1567 27.77C19.1567 27.5806 19.3356 27.4674 19.6355 27.4674C19.9565 27.4674 20.2672 27.5918 20.4196 27.689L20.6563 27.2347ZM27.0499 27.343C27.1914 27.1159 27.3968 26.9642 27.7124 26.9642C27.8232 26.9642 27.981 26.9859 28.1021 27.0348L27.9334 27.5646C27.8178 27.5157 27.7022 27.4996 27.5913 27.4996C27.2336 27.4996 27.0547 27.7372 27.0547 28.1649V29.6137H26.5079V27.0292L27.0499 27.0292V27.343ZM23.0454 27.0292H22.1511V26.2451H21.5982V27.0292H21.0881V27.5429H21.5982V28.7219C21.5982 29.3216 21.8246 29.6787 22.4715 29.6787C22.7088 29.6787 22.9822 29.6032 23.1556 29.4788L22.9978 28.9973C22.8346 29.0945 22.6558 29.1434 22.5136 29.1434C22.2402 29.1434 22.1511 28.9701 22.1511 28.7108V27.5429H23.0454V27.0292ZM14.8686 27.9916V29.6137H14.3158V28.1754C14.3158 27.7372 14.1369 27.494 13.7635 27.494C13.4003 27.494 13.148 27.7323 13.148 28.181V29.6137H12.5951V28.1754C12.5951 27.7372 12.4114 27.494 12.0483 27.494C11.6743 27.494 11.4322 27.7323 11.4322 28.181V29.6137H10.8799V27.0292H11.4273V27.3479C11.6327 27.0453 11.8953 26.9642 12.1639 26.9642C12.5481 26.9642 12.8216 27.1375 12.995 27.4241C13.2269 27.0614 13.5581 26.9587 13.8791 26.9642C14.4898 26.9698 14.8686 27.3807 14.8686 27.9916Z" fill="#231F20"/>
<path d="M28.7629 22.6376H20.4746V7.33105H28.7629V22.6376Z" fill="#FF5F00"/>
<path d="M21.0008 14.9851C21.0008 11.8801 22.4155 9.11421 24.6186 7.33178C23.0076 6.02838 20.9743 5.25043 18.7647 5.25043C13.5335 5.25043 9.29297 9.60871 9.29297 14.9851C9.29297 20.3614 13.5335 24.7197 18.7647 24.7197C20.9743 24.7197 23.0076 23.9418 24.6186 22.6384C22.4155 20.8559 21.0008 18.0901 21.0008 14.9851Z" fill="#EB001B"/>
<path d="M39.9444 14.9851C39.9444 20.3614 35.7039 24.7197 30.4727 24.7197C28.263 24.7197 26.2298 23.9418 24.6182 22.6384C26.8218 20.8559 28.2365 18.0901 28.2365 14.9851C28.2365 11.8801 26.8218 9.11421 24.6182 7.33178C26.2298 6.02838 28.263 5.25043 30.4727 5.25043C35.7039 5.25043 39.9444 9.60871 39.9444 14.9851Z" fill="#F79E1B"/>
</svg>
