<svg width="51" height="35" viewBox="0 0 51 35" fill="none" xmlns="http://www.w3.org/2000/svg">
<rect x="0.5" y="0.5" width="50" height="34" rx="3.5" fill="white" stroke="#F3F3F3"/>
<path fill-rule="evenodd" clip-rule="evenodd" d="M23.2476 17.724L23.4697 16.3166L22.9751 16.3051H20.6133L22.2546 5.91924C22.2598 5.88779 22.2763 5.85859 22.3004 5.83783C22.3247 5.81706 22.3556 5.80566 22.388 5.80566H26.3703C27.6925 5.80566 28.6049 6.08017 29.0811 6.62205C29.3045 6.87625 29.4467 7.14197 29.5156 7.43428C29.5878 7.74106 29.5889 8.10753 29.5185 8.55459L29.5134 8.58711V8.8736L29.7368 8.99987C29.9248 9.09944 30.0743 9.21337 30.1889 9.3438C30.3799 9.56122 30.5035 9.8375 30.5557 10.1649C30.6097 10.5017 30.5918 10.9026 30.5035 11.3565C30.4015 11.8784 30.2368 12.333 30.0143 12.705C29.8098 13.0477 29.5491 13.3321 29.2396 13.5523C28.944 13.7617 28.593 13.9206 28.196 14.0223C27.8113 14.1222 27.3727 14.1727 26.8917 14.1727H26.5818C26.3602 14.1727 26.145 14.2523 25.976 14.3951C25.8065 14.5408 25.6945 14.74 25.6601 14.9577L25.6367 15.0845L25.2444 17.5652L25.2266 17.6562C25.2219 17.6851 25.2138 17.6994 25.2019 17.7091C25.1913 17.718 25.1761 17.724 25.1612 17.724H23.2476Z" fill="#28356A"/>
<path fill-rule="evenodd" clip-rule="evenodd" d="M29.9489 8.62012C29.9372 8.69595 29.9235 8.77345 29.9083 8.85308C29.3831 11.544 27.5863 12.4736 25.2916 12.4736H24.1232C23.8425 12.4736 23.606 12.6769 23.5623 12.9532L22.7947 17.8124C22.7663 17.9939 22.9064 18.1573 23.0897 18.1573H25.1621C25.4074 18.1573 25.6159 17.9794 25.6545 17.7379L25.6749 17.6328L26.0651 15.1619L26.0901 15.0263C26.1283 14.784 26.3373 14.606 26.5826 14.606H26.8925C28.9003 14.606 30.4721 13.7926 30.9315 11.4385C31.1233 10.4551 31.024 9.63398 30.5162 9.05649C30.3626 8.88239 30.1719 8.73785 29.9489 8.62012Z" fill="#298FC2"/>
<path fill-rule="evenodd" clip-rule="evenodd" d="M29.3998 8.40197C29.3195 8.37859 29.2368 8.35747 29.1519 8.33836C29.0665 8.31973 28.9791 8.30323 28.889 8.28875C28.574 8.23796 28.2288 8.21387 27.859 8.21387H24.7377C24.6607 8.21387 24.5877 8.23119 24.5224 8.26252C24.3784 8.3316 24.2715 8.4676 24.2456 8.6341L23.5815 12.8313L23.5625 12.9536C23.6061 12.6773 23.8427 12.474 24.1233 12.474H25.2917C27.5865 12.474 29.3833 11.544 29.9084 8.85354C29.9241 8.77391 29.9373 8.69641 29.9491 8.62058C29.8163 8.5502 29.6724 8.49003 29.5174 8.43876C29.4791 8.42606 29.4396 8.41384 29.3998 8.40197Z" fill="#22284F"/>
<path fill-rule="evenodd" clip-rule="evenodd" d="M24.2448 8.63404C24.2707 8.46754 24.3777 8.33153 24.5217 8.26294C24.5874 8.23149 24.66 8.21416 24.7369 8.21416H27.8583C28.228 8.21416 28.5732 8.23837 28.8883 8.28916C28.9783 8.30352 29.0657 8.32014 29.1511 8.33877C29.236 8.35776 29.3188 8.379 29.399 8.40226C29.4389 8.41413 29.4784 8.42647 29.517 8.4387C29.672 8.48997 29.816 8.55061 29.9488 8.62051C30.1051 7.62611 29.9475 6.94906 29.4088 6.33597C28.8148 5.66093 27.7428 5.37207 26.371 5.37207H22.3886C22.1084 5.37207 21.8693 5.57536 21.8261 5.85212L20.1673 16.3448C20.1346 16.5523 20.2951 16.7396 20.5048 16.7396H22.9634L24.2448 8.63404Z" fill="#28356A"/>
<path fill-rule="evenodd" clip-rule="evenodd" d="M11.5149 20.5811H8.6113C8.41258 20.5811 8.24359 20.7251 8.21255 20.9209L7.03819 28.3511C7.01488 28.4978 7.12869 28.6299 7.2777 28.6299H8.66386C8.86258 28.6299 9.03157 28.4859 9.06261 28.2898L9.3793 26.2856C9.40986 26.0895 9.57921 25.9454 9.77757 25.9454H10.6967C12.6094 25.9454 13.7132 25.0217 14.0016 23.1915C14.1314 22.3906 14.007 21.7615 13.6313 21.3209C13.2186 20.837 12.4866 20.5811 11.5149 20.5811ZM11.8497 23.2949C11.691 24.3346 10.8949 24.3346 10.1252 24.3346H9.687L9.99441 22.3928C10.0127 22.2754 10.1145 22.189 10.2334 22.189H10.4343C10.9586 22.189 11.4532 22.189 11.7088 22.4873C11.8613 22.6652 11.9079 22.9296 11.8497 23.2949Z" fill="#28356A"/>
<path fill-rule="evenodd" clip-rule="evenodd" d="M20.2679 23.2048H18.8774C18.759 23.2048 18.6566 23.2912 18.6384 23.4085L18.5768 23.7966L18.4797 23.656C18.1787 23.22 17.5073 23.0742 16.8375 23.0742C15.3009 23.0742 13.9885 24.2356 13.733 25.8647C13.6001 26.6773 13.789 27.4544 14.251 27.9963C14.6747 28.4945 15.281 28.7021 16.0023 28.7021C17.2404 28.7021 17.9268 27.9077 17.9268 27.9077L17.8648 28.2933C17.8415 28.4407 17.9553 28.5729 18.1035 28.5729H19.3559C19.5551 28.5729 19.7232 28.4288 19.7546 28.2327L20.5061 23.4835C20.5299 23.3373 20.4164 23.2048 20.2679 23.2048ZM18.3302 25.9054C18.196 26.698 17.5656 27.2302 16.7615 27.2302C16.3577 27.2302 16.0351 27.1009 15.8278 26.8561C15.6223 26.6129 15.5443 26.2668 15.6096 25.8812C15.7349 25.0953 16.3759 24.5457 17.1678 24.5457C17.5627 24.5457 17.8836 24.6767 18.0951 24.9236C18.3069 25.1731 18.391 25.5215 18.3302 25.9054Z" fill="#28356A"/>
<path fill-rule="evenodd" clip-rule="evenodd" d="M27.5662 23.3232H26.1689C26.0356 23.3232 25.9103 23.3893 25.8348 23.5L23.9077 26.3327L23.0908 23.6104C23.0394 23.4401 22.882 23.3232 22.7036 23.3232H21.3306C21.1637 23.3232 21.0478 23.4859 21.1009 23.6427L22.64 28.1499L21.193 30.1883C21.0792 30.3488 21.1939 30.5696 21.3905 30.5696H22.786C22.9185 30.5696 23.0424 30.5051 23.1176 30.3968L27.7648 23.7024C27.8761 23.5423 27.7618 23.3232 27.5662 23.3232Z" fill="#28356A"/>
<path fill-rule="evenodd" clip-rule="evenodd" d="M32.2238 20.5811H29.3198C29.1216 20.5811 28.9526 20.7251 28.9215 20.9209L27.7472 28.3511C27.7239 28.4978 27.8377 28.6299 27.9859 28.6299H29.4761C29.6144 28.6299 29.7328 28.5291 29.7545 28.3918L30.0878 26.2856C30.1184 26.0895 30.2878 25.9454 30.4861 25.9454H31.4049C33.3179 25.9454 34.4213 25.0217 34.7101 23.1915C34.8404 22.3906 34.7152 21.7615 34.3394 21.3209C33.9271 20.837 33.1956 20.5811 32.2238 20.5811ZM32.5588 23.2949C32.4004 24.3346 31.6044 24.3346 30.8342 24.3346H30.3966L30.7043 22.3928C30.7225 22.2754 30.8236 22.189 30.9429 22.189H31.1438C31.6676 22.189 32.1627 22.189 32.4183 22.4873C32.5707 22.6652 32.617 22.9296 32.5588 23.2949Z" fill="#298FC2"/>
<path fill-rule="evenodd" clip-rule="evenodd" d="M40.976 23.2048H39.5864C39.4671 23.2048 39.3656 23.2912 39.3478 23.4085L39.2862 23.7966L39.1886 23.656C38.8876 23.22 38.2167 23.0742 37.5467 23.0742C36.0103 23.0742 34.6984 24.2356 34.4429 25.8647C34.3104 26.6773 34.4984 27.4544 34.9603 27.9963C35.385 28.4945 35.9903 28.7021 36.7117 28.7021C37.9496 28.7021 38.6362 27.9077 38.6362 27.9077L38.5742 28.2933C38.5509 28.4407 38.6646 28.5729 38.8137 28.5729H40.0657C40.264 28.5729 40.433 28.4288 40.464 28.2327L41.2158 23.4835C41.2388 23.3373 41.125 23.2048 40.976 23.2048ZM39.0384 25.9054C38.905 26.698 38.2737 27.2302 37.4695 27.2302C37.0666 27.2302 36.7432 27.1009 36.5359 26.8561C36.3305 26.6129 36.2532 26.2668 36.3176 25.8812C36.4438 25.0953 37.084 24.5457 37.8759 24.5457C38.2707 24.5457 38.5917 24.6767 38.8031 24.9236C39.0158 25.1731 39.0998 25.5215 39.0384 25.9054Z" fill="#298FC2"/>
<path fill-rule="evenodd" clip-rule="evenodd" d="M42.4985 20.7853L41.3068 28.3515C41.2834 28.4982 41.3971 28.6302 41.5453 28.6302H42.7435C42.9426 28.6302 43.1115 28.4863 43.1421 28.2901L44.3173 20.8603C44.3407 20.7136 44.2269 20.5811 44.0787 20.5811H42.7372C42.6187 20.5814 42.5168 20.6679 42.4985 20.7853Z" fill="#298FC2"/>
</svg>
