<svg width="51" height="37" viewBox="0 0 51 37" fill="none" xmlns="http://www.w3.org/2000/svg">
<rect x="0.5" y="0.5" width="50" height="36" rx="3.5" fill="#5A31F4" stroke="#F3F3F3"/>
<path d="M28.4854 15.8139C28.4854 17.993 27.023 19.5486 24.9794 19.5486H23.054C23.0328 19.5486 23.0117 19.553 22.9921 19.5615C22.9725 19.57 22.9547 19.5825 22.9397 19.5983C22.9247 19.614 22.9128 19.6327 22.9047 19.6532C22.8967 19.6738 22.8926 19.6958 22.8927 19.718V22.5821C22.8927 22.6268 22.8757 22.6698 22.8455 22.7015C22.8152 22.7333 22.7742 22.7512 22.7313 22.7514H21.3841C21.352 22.7513 21.3208 22.7413 21.2942 22.7226C21.2675 22.704 21.2468 22.6776 21.2345 22.6467C21.2263 22.6265 21.2221 22.6048 21.2219 22.5829V12.2477C21.2218 12.2255 21.2259 12.2035 21.234 12.183C21.242 12.1624 21.2539 12.1437 21.2689 12.128C21.2839 12.1122 21.3017 12.0998 21.3214 12.0912C21.341 12.0827 21.362 12.0783 21.3833 12.0783H24.988C27.023 12.0759 28.4854 13.6315 28.4854 15.8139ZM26.8052 15.8139C26.8052 14.5611 25.9875 13.6454 24.8783 13.6454H23.054C23.0328 13.6454 23.0117 13.6498 22.9921 13.6583C22.9725 13.6668 22.9547 13.6793 22.9397 13.695C22.9247 13.7108 22.9128 13.7295 22.9047 13.75C22.8967 13.7705 22.8926 13.7926 22.8927 13.8148V17.8032C22.8927 17.8479 22.9097 17.8908 22.9399 17.9224C22.9702 17.954 23.0113 17.9717 23.054 17.9717H24.8783C25.9875 17.9799 26.8052 17.0634 26.8052 15.8139ZM28.8849 20.7687C28.8709 20.4345 28.9371 20.1019 29.0774 19.8012C29.2178 19.5005 29.4278 19.2413 29.6885 19.047C30.2141 18.6337 31.0358 18.4202 32.2421 18.376L33.5267 18.3285V17.9325C33.5267 17.1387 33.0175 16.8032 32.1998 16.8032C31.382 16.8032 30.8635 17.106 30.7444 17.601C30.7347 17.6359 30.7142 17.6663 30.6861 17.6877C30.6581 17.709 30.624 17.72 30.5893 17.7189H29.3204C29.297 17.7196 29.2738 17.7148 29.2524 17.7051C29.231 17.6953 29.2119 17.6807 29.1965 17.6623C29.1811 17.644 29.1697 17.6223 29.1632 17.5988C29.1568 17.5754 29.1553 17.5507 29.159 17.5266C29.347 16.3531 30.2815 15.4612 32.2577 15.4612C34.3601 15.4612 35.1191 16.4841 35.1191 18.4365V22.5821C35.1187 22.6273 35.1011 22.6705 35.0703 22.7022C35.0395 22.734 34.9979 22.7517 34.9546 22.7514H33.6755C33.6327 22.7513 33.5916 22.7337 33.5611 22.7023C33.5462 22.6866 33.5343 22.668 33.5262 22.6475C33.5182 22.627 33.514 22.605 33.5141 22.5829V22.2727C33.5146 22.2471 33.5076 22.2219 33.4941 22.2005C33.4806 22.1791 33.4612 22.1625 33.4385 22.1528C33.4157 22.1432 33.3907 22.1409 33.3668 22.1464C33.3428 22.1519 33.321 22.1648 33.3042 22.1835C32.9204 22.6197 32.3008 22.9347 31.3084 22.9347C29.8483 22.9347 28.8849 22.141 28.8849 20.7687ZM33.5267 19.8702V19.5486L31.8629 19.6403C30.9864 19.6869 30.4765 20.0674 30.4765 20.7081C30.4765 21.2875 30.9441 21.6083 31.7611 21.6083C32.871 21.6083 33.5267 20.9823 33.5267 19.8702ZM36.4037 25.8839V24.6826C36.4039 24.6574 36.4095 24.6326 36.4199 24.6099C36.4304 24.5872 36.4455 24.5672 36.4642 24.5513C36.4829 24.5353 36.5047 24.5239 36.528 24.5177C36.5514 24.5116 36.5758 24.5109 36.5995 24.5157C36.7953 24.5542 36.9951 24.5738 37.1948 24.5746C37.5382 24.5921 37.8773 24.4887 38.1577 24.281C38.4382 24.0733 38.6439 23.7733 38.7418 23.429L38.8248 23.1524C38.8369 23.1153 38.8369 23.075 38.8248 23.0378L36.1593 15.8859C36.1497 15.86 36.1462 15.832 36.1492 15.8043C36.1522 15.7767 36.1616 15.7502 36.1765 15.7272C36.1914 15.7042 36.2115 15.6853 36.235 15.6722C36.2585 15.6591 36.2846 15.6521 36.3113 15.6518H37.6037C37.6367 15.6522 37.6688 15.6629 37.6959 15.6826C37.7231 15.7023 37.7439 15.7301 37.7556 15.7623L39.5658 20.8063C39.5772 20.8398 39.5982 20.8689 39.6259 20.8894C39.6537 20.9099 39.6869 20.9209 39.7209 20.9209C39.7549 20.9209 39.7881 20.9099 39.8159 20.8894C39.8437 20.8689 39.8647 20.8398 39.876 20.8063L41.4481 15.7762C41.459 15.7418 41.48 15.7119 41.5081 15.6908C41.5363 15.6696 41.5701 15.6583 41.6047 15.6584H42.9418C42.9686 15.6586 42.9949 15.6655 43.0186 15.6786C43.0423 15.6917 43.0625 15.7106 43.0777 15.7337C43.0929 15.7568 43.1025 15.7833 43.1057 15.8111C43.1089 15.8389 43.1056 15.8671 43.0961 15.8932L40.2449 23.8357C39.5885 25.6818 38.463 26.1539 37.2238 26.1539C36.9888 26.1605 36.7538 26.131 36.5267 26.0664C36.4889 26.0559 36.4558 26.0319 36.4334 25.9985C36.4109 25.9652 36.4004 25.9246 36.4037 25.8839ZM12.5642 11.4826C10.8661 11.47 9.22792 12.1377 7.98666 13.3483C7.93357 13.3991 7.90048 13.4687 7.89382 13.5436C7.88716 13.6185 7.90741 13.6933 7.95062 13.7534L8.71903 14.8499C8.74394 14.8864 8.77621 14.9168 8.81356 14.9389C8.85091 14.9609 8.89244 14.9742 8.93522 14.9777C8.97801 14.9812 9.02101 14.9749 9.0612 14.9592C9.10139 14.9435 9.1378 14.9187 9.16786 14.8867C9.61418 14.4206 10.145 14.052 10.7292 13.8026C11.3134 13.5532 11.9394 13.428 12.5705 13.4342C15.2055 13.4342 16.5817 15.5062 16.5817 17.5519C16.5817 19.7761 15.1358 21.3407 13.0577 21.3718C11.4519 21.3718 10.2418 20.2597 10.2418 18.7909C10.2434 18.4198 10.3239 18.0537 10.4774 17.7191C10.6308 17.3844 10.8535 17.0895 11.1292 16.8556C11.1875 16.8047 11.2244 16.732 11.2318 16.653C11.2393 16.574 11.2168 16.4951 11.1692 16.4333L10.3616 15.3679C10.3372 15.3357 10.3068 15.3089 10.2723 15.2891C10.2378 15.2694 10.1999 15.257 10.1608 15.2528C10.1216 15.2486 10.0821 15.2527 10.0445 15.2647C10.0069 15.2767 9.97193 15.2965 9.94175 15.3229C9.44578 15.7403 9.04555 16.2685 8.77041 16.8686C8.49526 17.4687 8.35218 18.1255 8.35167 18.7909C8.35167 21.3194 10.4086 23.303 13.0436 23.3193H13.0788C16.2073 23.2768 18.4694 20.8563 18.4694 17.5479C18.4694 14.6101 16.3984 11.4826 12.565 11.4826H12.5642Z" fill="white"/>
</svg>
