<svg width="52" height="35" viewBox="0 0 52 35" fill="none" xmlns="http://www.w3.org/2000/svg">
<rect x="0.5" y="0.5" width="51" height="34" rx="3.5" fill="white" stroke="#F3F3F3"/>
<path d="M23.088 24.0045H19.626L21.7914 11.7539H25.2532L23.088 24.0045Z" fill="#15195A"/>
<path d="M35.638 12.0528C34.9552 11.8049 33.8721 11.5312 32.5329 11.5312C29.114 11.5312 26.7065 13.1993 26.6917 15.5842C26.6633 17.3437 28.4155 18.321 29.7259 18.9077C31.0653 19.5072 31.5206 19.8985 31.5206 20.4329C31.507 21.2536 30.4383 21.6319 29.4415 21.6319C28.0594 21.6319 27.3187 21.4369 26.1933 20.9803L25.7374 20.7845L25.2529 23.5345C26.0649 23.873 27.5609 24.1733 29.114 24.1865C32.7466 24.1865 35.1116 22.5442 35.1396 20.0028C35.1534 18.6082 34.2282 17.5396 32.2336 16.6665C31.0227 16.1059 30.2812 15.728 30.2812 15.1544C30.2954 14.6331 30.9084 14.099 32.2752 14.099C33.4007 14.0729 34.2276 14.3204 34.8541 14.5681L35.1672 14.6982L35.638 12.0528Z" fill="#15195A"/>
<path fill-rule="evenodd" clip-rule="evenodd" d="M41.8347 11.7539H44.5126L47.3055 24.0044H44.1C44.1 24.0044 43.7863 22.5968 43.687 22.1667H39.242C39.1135 22.4923 38.5154 24.0044 38.5154 24.0044H34.8828L40.0252 12.7703C40.3815 11.9753 41.0089 11.7539 41.8347 11.7539ZM41.6214 16.2369C41.6214 16.2369 40.5243 18.9608 40.2392 19.6646H43.1168C42.9744 19.0521 42.3188 16.1197 42.3188 16.1197L42.0769 15.0641C41.975 15.3359 41.8277 15.7096 41.7283 15.9617C41.6609 16.1325 41.6156 16.2475 41.6214 16.2369Z" fill="#15195A"/>
<path fill-rule="evenodd" clip-rule="evenodd" d="M4.62534 11.7539H10.1954C10.9504 11.7797 11.563 12.0013 11.7624 12.7837L12.9728 18.4118C12.9729 18.4123 12.9731 18.4129 12.9733 18.4134L13.3438 20.1077L16.7342 11.7539H20.395L14.9534 23.9915H11.2924L8.20667 13.3469C7.142 12.7773 5.92691 12.3193 4.56836 12.0014L4.62534 11.7539Z" fill="#15195A"/>
</svg>
