<svg width="9" height="13" viewBox="0 0 9 13" fill="none" xmlns="http://www.w3.org/2000/svg">
<path d="M1.5 0.5C1.69891 0.5 1.88968 0.579018 2.03033 0.71967C2.17098 0.860322 2.25 1.05109 2.25 1.25V11.75C2.25 11.9489 2.17098 12.1397 2.03033 12.2803C1.88968 12.421 1.69891 12.5 1.5 12.5C1.30109 12.5 1.11032 12.421 0.96967 12.2803C0.829018 12.1397 0.75 11.9489 0.75 11.75V1.25C0.75 1.05109 0.829018 0.860322 0.96967 0.71967C1.11032 0.579018 1.30109 0.5 1.5 0.5ZM4.5 0.5C4.69891 0.5 4.88968 0.579018 5.03033 0.71967C5.17098 0.860322 5.25 1.05109 5.25 1.25V11.75C5.25 11.9489 5.17098 12.1397 5.03033 12.2803C4.88968 12.421 4.69891 12.5 4.5 12.5C4.30109 12.5 4.11032 12.421 3.96967 12.2803C3.82902 12.1397 3.75 11.9489 3.75 11.75V1.25C3.75 1.05109 3.82902 0.860322 3.96967 0.71967C4.11032 0.579018 4.30109 0.5 4.5 0.5ZM7.5 0.5C7.69891 0.5 7.88968 0.579018 8.03033 0.71967C8.17098 0.860322 8.25 1.05109 8.25 1.25V11.75C8.25 11.9489 8.17098 12.1397 8.03033 12.2803C7.88968 12.421 7.69891 12.5 7.5 12.5C7.30109 12.5 7.11032 12.421 6.96967 12.2803C6.82902 12.1397 6.75 11.9489 6.75 11.75V1.25C6.75 1.05109 6.82902 0.860322 6.96967 0.71967C7.11032 0.579018 7.30109 0.5 7.5 0.5Z" fill="#212121"/>
</svg>
